HIERARCHY
ROOT Hips
{
	OFFSET	0.0000	0.0000	0.0000
	CHANNELS 6 Xposition Yposition Zposition Xrotation Yrotation Zrotation
	JOINT Spine
	{
		OFFSET	0.0000	4.9371	9.1235
		CHANNELS 3 Xrotation Yrotation Zrotation
		JOINT Spine1
		{
			OFFSET	0.0000	-0.4349	8.3259
			CHANNELS 3 Xrotation Yrotation Zrotation
			JOINT Spine2
			{
				OFFSET	0.0000	2.2932	10.3024
				CHANNELS 3 Xrotation Yrotation Zrotation
				JOINT Neck
				{
					OFFSET	0.0000	0.4828	23.2160
					CHANNELS 3 Xrotation Yrotation Zrotation
					JOINT Head
					{
						OFFSET	0.0000	-3.5660	13.1103
						CHANNELS 3 Xrotation Yrotation Zrotation
						End Site
						{
							OFFSET	0.0001	-0.5469	18.3185
						}
					}
				}
				JOINT LeftShoulder
				{
					OFFSET	2.3438	-7.6759	22.4046
					CHANNELS 3 Xrotation Yrotation Zrotation
					JOINT LeftArm
					{
						OFFSET	13.6931	5.1999	3.2136
						CHANNELS 3 Xrotation Yrotation Zrotation
						JOINT LeftForeArm
						{
							OFFSET	29.0868	0.2520	-0.1033
							CHANNELS 3 Xrotation Yrotation Zrotation
							JOINT LeftHand
							{
								OFFSET	24.2645	0.1453	0.0704
								CHANNELS 3 Xrotation Yrotation Zrotation
								JOINT LeftHandIndex1
								{
									OFFSET	9.4042	-2.6120	0.8224
									CHANNELS 3 Xrotation Yrotation Zrotation
									JOINT LeftHandIndex2
									{
										OFFSET	3.5177	-0.6198	-0.8578
										CHANNELS 3 Xrotation Yrotation Zrotation
										JOINT LeftHandIndex3
										{
											OFFSET	2.4014	-0.4233	-0.5858
											CHANNELS 3 Xrotation Yrotation Zrotation
											End Site
											{
												OFFSET	1.7088	-0.2772	-0.5101
											}
										}
									}
								}
								JOINT LeftHandMiddle1
								{
									OFFSET	9.5446	-0.2274	0.9498
									CHANNELS 3 Xrotation Yrotation Zrotation
									JOINT LeftHandMiddle2
									{
										OFFSET	4.3494	0.0257	0.0121
										CHANNELS 3 Xrotation Yrotation Zrotation
										JOINT LeftHandMiddle3
										{
											OFFSET	2.4108	0.0147	0.0073
											CHANNELS 3 Xrotation Yrotation Zrotation
											End Site
											{
												OFFSET	2.1654	-0.0029	-0.1529
											}
										}
									}
								}
								JOINT LeftHandRing1
								{
									OFFSET	9.0454	2.1399	0.6337
									CHANNELS 3 Xrotation Yrotation Zrotation
									JOINT LeftHandRing2
									{
										OFFSET	3.9466	0.2471	-0.1998
										CHANNELS 3 Xrotation Yrotation Zrotation
										JOINT LeftHandRing3
										{
											OFFSET	2.2489	0.1413	-0.1131
											CHANNELS 3 Xrotation Yrotation Zrotation
											End Site
											{
												OFFSET	1.9885	0.0940	-0.2445
											}
										}
									}
								}
								JOINT LeftHandPinky1
								{
									OFFSET	8.3938	3.6958	-0.6379
									CHANNELS 3 Xrotation Yrotation Zrotation
									JOINT LeftHandPinky2
									{
										OFFSET	2.4275	0.6701	-0.5062
										CHANNELS 3 Xrotation Yrotation Zrotation
										JOINT LeftHandPinky3
										{
											OFFSET	1.7801	0.4917	-0.3708
											CHANNELS 3 Xrotation Yrotation Zrotation
											End Site
											{
												OFFSET	1.5800	0.3625	-0.4341
											}
										}
									}
								}
								JOINT LeftHandThumb1
								{
									OFFSET	1.9453	-1.4747	-1.4724
									CHANNELS 3 Xrotation Yrotation Zrotation
									JOINT LeftHandThumb2
									{
										OFFSET	3.6220	-2.7308	-1.1896
										CHANNELS 3 Xrotation Yrotation Zrotation
										JOINT LeftHandThumb3
										{
											OFFSET	2.3851	-1.7184	-0.8534
											CHANNELS 3 Xrotation Yrotation Zrotation
											End Site
											{
												OFFSET	1.7539	-1.2010	-0.6037
											}
										}
									}
								}
							}
						}
					}
				}
				JOINT RightShoulder
				{
					OFFSET	-2.3438	-7.6759	22.4046
					CHANNELS 3 Xrotation Yrotation Zrotation
					JOINT RightArm
					{
						OFFSET	-13.6955	5.2008	3.2142
						CHANNELS 3 Xrotation Yrotation Zrotation
						JOINT RightForeArm
						{
							OFFSET	-29.0868	0.2520	-0.1033
							CHANNELS 3 Xrotation Yrotation Zrotation
							JOINT RightHand
							{
								OFFSET	-24.2645	0.1453	0.0704
								CHANNELS 3 Xrotation Yrotation Zrotation
								JOINT RightHandIndex1
								{
									OFFSET	-9.4042	-2.6120	0.8224
									CHANNELS 3 Xrotation Yrotation Zrotation
									JOINT RightHandIndex2
									{
										OFFSET	-3.5177	-0.6198	-0.8578
										CHANNELS 3 Xrotation Yrotation Zrotation
										JOINT RightHandIndex3
										{
											OFFSET	-2.4014	-0.4233	-0.5858
											CHANNELS 3 Xrotation Yrotation Zrotation
											End Site
											{
												OFFSET	-1.7088	-0.2772	-0.5101
											}
										}
									}
								}
								JOINT RightHandMiddle1
								{
									OFFSET	-9.5446	-0.2274	0.9498
									CHANNELS 3 Xrotation Yrotation Zrotation
									JOINT RightHandMiddle2
									{
										OFFSET	-4.3494	0.0257	0.0121
										CHANNELS 3 Xrotation Yrotation Zrotation
										JOINT RightHandMiddle3
										{
											OFFSET	-2.4108	0.0147	0.0073
											CHANNELS 3 Xrotation Yrotation Zrotation
											End Site
											{
												OFFSET	-2.1654	-0.0029	-0.1529
											}
										}
									}
								}
								JOINT RightHandRing1
								{
									OFFSET	-9.0454	2.1399	0.6337
									CHANNELS 3 Xrotation Yrotation Zrotation
									JOINT RightHandRing2
									{
										OFFSET	-3.9466	0.2471	-0.1998
										CHANNELS 3 Xrotation Yrotation Zrotation
										JOINT RightHandRing3
										{
											OFFSET	-2.2489	0.1413	-0.1131
											CHANNELS 3 Xrotation Yrotation Zrotation
											End Site
											{
												OFFSET	-1.9885	0.0940	-0.2445
											}
										}
									}
								}
								JOINT RightHandPinky1
								{
									OFFSET	-8.3938	3.6958	-0.6379
									CHANNELS 3 Xrotation Yrotation Zrotation
									JOINT RightHandPinky2
									{
										OFFSET	-2.4275	0.6701	-0.5062
										CHANNELS 3 Xrotation Yrotation Zrotation
										JOINT RightHandPinky3
										{
											OFFSET	-1.7801	0.4917	-0.3708
											CHANNELS 3 Xrotation Yrotation Zrotation
											End Site
											{
												OFFSET	-1.5800	0.3625	-0.4341
											}
										}
									}
								}
								JOINT RightHandThumb1
								{
									OFFSET	-1.9453	-1.4747	-1.4724
									CHANNELS 3 Xrotation Yrotation Zrotation
									JOINT RightHandThumb2
									{
										OFFSET	-3.6220	-2.7308	-1.1896
										CHANNELS 3 Xrotation Yrotation Zrotation
										JOINT RightHandThumb3
										{
											OFFSET	-2.3851	-1.7184	-0.8534
											CHANNELS 3 Xrotation Yrotation Zrotation
											End Site
											{
												OFFSET	-1.7539	-1.2010	-0.6037
											}
										}
									}
								}
							}
						}
					}
				}
			}
		}
	}
	JOINT RightUpLeg
	{
		OFFSET	-9.7599	0.8045	4.1241
		CHANNELS 3 Xrotation Yrotation Zrotation
		JOINT RightLeg
		{
			OFFSET	-0.7810	0.0000	-42.4512
			CHANNELS 3 Xrotation Yrotation Zrotation
			JOINT RightFoot
			{
				OFFSET	0.0000	0.0000	-41.6845
				CHANNELS 3 Xrotation Yrotation Zrotation
				JOINT RightToeBase
				{
					OFFSET	0.0000	-9.5805	-4.5815
					CHANNELS 3 Xrotation Yrotation Zrotation
					End Site
					{
						OFFSET	0.0000	-6.4272	0.0000
					}
				}
			}
		}
	}
	JOINT LeftUpLeg
	{
		OFFSET	9.7598	0.8045	4.1244
		CHANNELS 3 Xrotation Yrotation Zrotation
		JOINT LeftLeg
		{
			OFFSET	0.7810	0.0000	-42.4515
			CHANNELS 3 Xrotation Yrotation Zrotation
			JOINT LeftFoot
			{
				OFFSET	0.0000	0.0000	-41.6845
				CHANNELS 3 Xrotation Yrotation Zrotation
				JOINT LeftToeBase
				{
					OFFSET	0.0000	-9.5805	-4.5815
					CHANNELS 3 Xrotation Yrotation Zrotation
					End Site
					{
						OFFSET	0.0000	-6.4272	0.0000
					}
				}
			}
		}
	}
}
MOTION
Frames:	5
Frame Time: 0.0333333000
	-0.1574	-131.6999	99.2729	-8.694127	14.019210	97.401080	0.000000	0.000000	0.000000	3.377588	-3.588496	2.950003	12.067420	-11.196010	10.728220	-0.000001	0.000002	0.000003	-0.000003	0.000000	0.000004	-0.000003	13.089740	0.000004	-8.177782	69.940080	30.057160	-22.202890	-0.075525	-27.826170	0.000000	0.000000	0.000000	-0.000009	-0.000003	-0.000003	-0.000002	-0.000003	0.000000	-0.000002	-0.000003	0.000000	-0.000009	-0.000003	-0.000003	-0.000002	-0.000003	0.000000	-0.000002	-0.000003	0.000000	-0.000009	-0.000003	-0.000003	-0.000002	-0.000003	0.000000	-0.000002	-0.000003	0.000000	-0.000009	-0.000003	-0.000003	-0.000002	-0.000003	0.000000	-0.000002	-0.000003	0.000000	-0.000009	-0.000003	-0.000003	-0.000002	-0.000003	0.000000	-0.000002	-0.000003	0.000000	0.000000	-6.747349	0.000008	-16.864110	-36.727730	17.216860	-33.782910	0.132119	22.926500	0.000003	0.000003	-0.000003	0.000004	0.000001	-0.000001	0.000000	-0.000001	0.000004	0.000003	0.000002	0.000001	0.000004	0.000001	-0.000001	0.000000	-0.000001	0.000004	0.000003	0.000002	0.000001	0.000004	0.000001	-0.000001	0.000000	-0.000001	0.000004	0.000003	0.000002	0.000001	0.000004	0.000001	-0.000001	0.000000	-0.000001	0.000004	0.000003	0.000002	0.000001	0.000004	0.000001	-0.000001	0.000000	-0.000001	0.000004	0.000003	0.000002	0.000001	-32.045890	-0.825006	-9.468069	25.351180	-4.290855	-9.362163	-1.115648	-0.089637	0.189991	0.000002	0.000003	0.000003	-25.285190	-12.449820	-2.805023	24.731350	0.269928	0.876086	-0.186517	-0.405253	0.825814	0.000000	0.000000	0.000000
	-0.2299	-132.1663	99.4670	-9.010952	13.197400	100.150100	0.000000	0.000000	0.000000	3.546241	-3.575118	2.691329	12.572090	-11.183130	9.894778	0.000000	0.000000	-0.000003	0.000000	0.000000	-0.000003	-0.000003	13.233680	0.000009	-7.766438	66.919720	27.569940	-22.582360	-0.083864	-27.497530	-0.000002	-0.000003	0.000004	0.000001	-0.000008	0.000002	-0.000002	-0.000003	0.000004	-0.000002	-0.000003	0.000004	0.000001	-0.000008	0.000002	-0.000002	-0.000003	0.000004	-0.000002	-0.000003	0.000004	0.000001	-0.000008	0.000002	-0.000002	-0.000003	0.000004	-0.000002	-0.000003	0.000004	0.000001	-0.000008	0.000002	-0.000002	-0.000003	0.000004	-0.000002	-0.000003	0.000004	0.000001	-0.000008	0.000002	-0.000002	-0.000003	0.000004	-0.000002	-0.000003	0.000004	0.000005	-5.935406	0.000005	-20.175460	-38.773110	22.459280	-38.089260	0.163693	23.431050	0.000000	0.000006	-0.000008	-0.000003	-0.000002	0.000008	0.000001	0.000001	-0.000009	0.000000	-0.000003	0.000007	-0.000003	-0.000002	0.000008	0.000001	0.000001	-0.000009	0.000000	-0.000003	0.000007	-0.000003	-0.000002	0.000008	0.000001	0.000001	-0.000009	0.000000	-0.000003	0.000007	-0.000003	-0.000002	0.000008	0.000001	0.000001	-0.000009	0.000000	-0.000003	0.000007	-0.000003	-0.000002	0.000008	0.000001	0.000001	-0.000009	0.000000	-0.000003	0.000007	-31.909880	-1.411277	-5.584332	26.834910	-2.687963	-5.662489	-0.407821	-0.215366	0.447484	0.000008	0.000003	0.000007	-26.903120	-12.111850	-3.787738	26.974150	-0.073626	0.142220	-0.465763	-0.029108	0.051626	-0.000001	-0.000001	-0.000003
	-0.2438	-132.5553	99.4688	-9.805687	12.233200	103.095600	0.000000	0.000000	0.000000	3.702325	-3.614307	2.412775	13.043940	-11.355740	9.008606	-0.000004	-0.000005	0.000002	0.000000	0.000000	0.000000	-0.000005	13.236220	-0.000010	-9.498218	63.745070	27.717050	-23.570220	-0.105496	-29.057660	0.000000	0.000000	0.000000	0.000000	0.000000	0.000000	0.000002	-0.000009	0.000009	0.000002	0.000000	-0.000003	0.000000	0.000000	0.000000	0.000002	-0.000009	0.000009	0.000002	0.000000	-0.000003	0.000000	0.000000	0.000000	0.000002	-0.000009	0.000009	0.000002	0.000000	-0.000003	0.000000	0.000000	0.000000	0.000002	-0.000009	0.000009	0.000002	0.000000	-0.000003	0.000000	0.000000	0.000000	0.000002	-0.000009	0.000009	0.000002	0.000000	-0.000003	-0.000006	-5.137763	-0.000007	-19.992720	-38.671320	28.251970	-38.649150	0.175162	23.397160	0.000000	0.000000	0.000000	0.000000	0.000000	0.000000	0.000000	0.000000	0.000000	0.000000	0.000000	0.000000	0.000000	0.000000	0.000000	0.000000	0.000000	0.000000	0.000000	0.000000	0.000000	0.000000	0.000000	0.000000	0.000000	0.000000	0.000000	0.000000	0.000000	0.000000	0.000000	0.000000	0.000000	0.000000	0.000000	0.000000	0.000000	0.000000	0.000000	0.000000	0.000000	0.000000	0.000000	0.000000	0.000000	0.000000	0.000000	0.000000	-30.934910	-2.345981	-2.459746	26.400550	-1.205879	-2.602765	0.149555	-0.255145	0.534139	0.000000	0.000000	-0.000007	-28.059590	-12.347110	-4.389785	28.327140	-0.229983	-0.182145	-0.541597	0.119047	-0.245915	0.000000	0.000000	0.000000
	-0.1890	-132.8779	99.4380	-11.053600	11.288380	105.881400	0.000000	0.000000	0.000000	3.822153	-3.701202	2.112074	13.399140	-11.703900	8.056911	0.000003	-0.000003	0.000011	-0.000002	0.000001	0.000003	-0.000004	12.983010	0.000016	-10.830460	60.788670	28.745770	-23.859950	-0.088212	-33.024660	0.000003	0.000002	0.000001	0.000003	-0.000004	-0.000002	0.000000	0.000000	0.000000	0.000000	0.000000	0.000000	0.000003	-0.000004	-0.000002	0.000000	0.000000	0.000000	0.000000	0.000000	0.000000	0.000003	-0.000004	-0.000002	0.000000	0.000000	0.000000	0.000000	0.000000	0.000000	0.000003	-0.000004	-0.000002	0.000000	0.000000	0.000000	0.000000	0.000000	0.000000	0.000003	-0.000004	-0.000002	0.000000	0.000000	0.000000	0.000000	0.000000	0.000000	-0.000005	-4.357876	0.000015	-18.168540	-37.324550	34.057790	-37.279540	0.163764	22.587400	-0.000004	-0.000002	0.000003	0.000000	0.000000	0.000000	0.000000	0.000000	0.000000	0.000000	0.000000	0.000000	0.000000	0.000000	0.000000	0.000000	0.000000	0.000000	0.000000	0.000000	0.000000	0.000000	0.000000	0.000000	0.000000	0.000000	0.000000	0.000000	0.000000	0.000000	0.000000	0.000000	0.000000	0.000000	0.000000	0.000000	0.000000	0.000000	0.000000	0.000000	0.000000	0.000000	0.000000	0.000000	0.000000	0.000000	0.000000	0.000000	-29.218960	-3.497390	-1.083415	23.851250	-0.407035	-1.073312	0.327269	-0.197688	0.420372	0.000000	0.000000	0.000003	-28.690460	-13.309370	-4.330902	28.592980	-0.052982	0.169500	-0.678214	0.221723	-0.453705	0.000000	0.000000	0.000000
	-0.1246	-133.0789	99.5064	-12.289700	10.591540	108.198200	0.000000	0.000000	0.000000	3.889687	-3.821315	1.795124	13.577910	-12.179100	7.049351	0.000001	-0.000002	0.000000	0.000000	0.000000	0.000000	-0.000005	12.595660	0.000006	-11.389340	58.112100	29.553360	-23.558360	-0.057118	-38.121110	-0.000010	-0.000001	-0.000004	0.000000	0.000000	0.000000	0.000000	0.000000	0.000000	0.000000	0.000000	0.000000	0.000000	0.000000	0.000000	0.000000	0.000000	0.000000	0.000000	0.000000	0.000000	0.000000	0.000000	0.000000	0.000000	0.000000	0.000000	0.000000	0.000000	0.000000	0.000000	0.000000	0.000000	0.000000	0.000000	0.000000	0.000000	0.000000	0.000000	0.000000	0.000000	0.000000	0.000000	0.000000	0.000000	0.000000	0.000000	0.000000	0.000006	-3.593569	-0.000002	-17.602480	-36.911870	39.311730	-37.291640	0.156255	21.505650	0.000004	-0.000001	-0.000001	0.000003	0.000000	0.000000	0.000003	0.000000	0.000000	0.000003	0.000000	0.000000	0.000003	0.000000	0.000000	0.000003	0.000000	0.000000	0.000003	0.000000	0.000000	0.000003	0.000000	0.000000	0.000003	0.000000	0.000000	0.000003	0.000000	0.000000	0.000003	0.000000	0.000000	0.000003	0.000000	0.000000	0.000003	0.000000	0.000000	0.000003	0.000000	0.000000	0.000003	0.000000	0.000000	0.000003	0.000000	0.000000	-27.501120	-4.383743	-0.945508	20.565030	-0.200931	-0.733804	0.042116	-0.108488	0.229078	0.000000	0.000000	0.000000	-28.953340	-14.260260	-4.094678	27.765860	0.182225	0.612056	-1.268039	0.324648	-0.659625	0.000000	0.000000	0.000000
